<?xml version="1.0" encoding="UTF-8"?>
<svg id="Layer_1" data-name="Layer 1" xmlns="http://www.w3.org/2000/svg" viewBox="0 0 283.46 70.87">
  <defs>
    <style>
      .cls-1 {
        fill: #3d7fff;
      }
    </style>
  </defs>
  <g id="title">
    <path id="path210829" class="cls-1" d="M14.17,45.19V27.32c0-.75,.26-1.38,.79-1.89,.53-.51,1.15-.76,1.86-.76h2.26c.53,0,.79,.26,.79,.79v7.09c0,.35,.12,.59,.37,.73,.24,.12,.44,.18,.58,.18,1.26-.02,2.31-.11,3.14-.27,.85-.18,1.68-.45,2.47-.79,.16-.08,.31-.19,.43-.34,.12-.14,.18-.33,.18-.55v-4.18c0-.41,.07-.77,.21-1.1,.16-.33,.37-.6,.61-.82,.26-.24,.55-.43,.85-.55,.33-.12,.65-.18,.98-.18h2.26c.53,0,.79,.26,.79,.79v19.73c0,.24-.07,.44-.21,.58-.14,.12-.34,.18-.58,.18h-4.12c-.2,0-.39-.07-.55-.21-.16-.14-.24-.33-.24-.55v-7.24c0-.31-.1-.53-.31-.67-.18-.14-.39-.21-.61-.21-.08,0-.18,.02-.31,.06-1,.29-2,.47-3.02,.55-1,.08-1.88,.12-2.66,.12h-1.04c-.28-.02-.51-.03-.67-.03,.41,.06,.74,.24,1.01,.55,.28,.29,.43,.63,.43,1.04v5.83c0,.24-.07,.44-.21,.58-.14,.12-.34,.18-.58,.18h-4.15c-.22,0-.41-.07-.55-.21-.14-.14-.21-.33-.21-.55h0Z"/>
    <path id="path210831" class="cls-1" d="M50.92,45.19v-5.44c0-.33-.04-.65-.12-.98-.08-.35-.18-.63-.31-.86l-6.59-12.28c-.06-.1-.09-.21-.09-.34,0-.16,.06-.31,.18-.43,.14-.14,.3-.21,.46-.21h4c.22,0,.44,.06,.64,.18,.22,.1,.38,.26,.46,.49,.73,1.32,1.39,2.51,1.98,3.57,.35,.65,.62,1.17,.82,1.56,.22,.37,.42,.71,.58,1.04,.18,.33,.34,.6,.46,.82,.14,.22,.22,.36,.24,.4,.04,.06,.09,.09,.15,.09s.1-.03,.12-.09c.02-.04,.09-.17,.21-.4,.14-.24,.31-.54,.49-.89,.2-.35,.43-.74,.67-1.19,.24-.45,.49-.9,.73-1.34,.59-1.06,1.25-2.25,1.98-3.57,.26-.45,.63-.67,1.1-.67h4c.16,0,.31,.07,.43,.21,.14,.12,.21,.26,.21,.43,0,.12-.03,.23-.09,.34-1.18,2.2-2.25,4.17-3.21,5.93-.57,1.08-1.03,1.93-1.37,2.57-.33,.61-.63,1.19-.92,1.74-.28,.53-.53,.99-.73,1.37-.2,.37-.33,.58-.37,.64-.14,.26-.25,.56-.34,.89-.06,.31-.09,.6-.09,.89v5.53c0,.24-.07,.44-.21,.58-.14,.12-.34,.18-.58,.18h-4.15c-.22,0-.41-.07-.55-.21-.14-.14-.21-.33-.21-.55h0Z"/>
    <path id="path210833" class="cls-1" d="M92.72,31.66c0,1.28-.22,2.37-.67,3.27-.45,.88-1.06,1.59-1.83,2.14-.75,.53-1.64,.92-2.66,1.16-1.02,.22-2.11,.34-3.27,.34h-2.56c-.24,0-.46,.08-.64,.24-.18,.16-.27,.39-.27,.67v5.65c0,.2-.08,.39-.24,.55-.14,.14-.32,.21-.52,.21h-4.37c-.2,0-.39-.07-.55-.21-.14-.16-.21-.35-.21-.55V27.26c0-.43,.08-.8,.24-1.13,.16-.35,.38-.63,.64-.86,.26-.22,.55-.39,.85-.49,.31-.12,.61-.18,.92-.18h6.72c1.16,0,2.25,.13,3.27,.4,1.04,.24,1.93,.65,2.69,1.22,.77,.55,1.37,1.27,1.8,2.17,.45,.9,.67,1.99,.67,3.27h0Zm-5.92-.03c0-.86-.23-1.51-.7-1.95-.45-.47-1.1-.7-1.95-.7h-5.16c.16,0,.35,.04,.55,.12,.2,.06,.39,.16,.55,.31,.18,.14,.34,.33,.46,.55,.12,.2,.18,.44,.18,.7v2.63c0,.29,.09,.52,.27,.7,.2,.16,.43,.24,.67,.24h2.47c.83,0,1.49-.22,1.95-.67,.47-.45,.7-1.09,.7-1.92Z"/>
    <path id="path210835" class="cls-1" d="M121.56,45.92h-4.3c-.57,0-.98-.26-1.22-.79l-3.11-6.11c-.18-.33-.46-.49-.82-.49h-4c.51,0,.91,.18,1.19,.55,.31,.35,.46,.7,.46,1.07v5.04c0,.22-.07,.4-.21,.52-.14,.14-.33,.21-.55,.21h-4.18c-.2,0-.39-.07-.55-.21-.14-.16-.21-.34-.21-.52V27.29c0-.75,.26-1.37,.79-1.86,.53-.51,1.15-.76,1.86-.76h6.47c1.14,0,2.22,.12,3.24,.37,1.04,.24,1.94,.64,2.72,1.19,.79,.55,1.42,1.27,1.89,2.17,.47,.88,.7,1.95,.7,3.24s-.27,2.32-.82,3.3c-.55,.98-1.36,1.77-2.44,2.38-.16,.1-.25,.22-.27,.37,0,.14,.03,.25,.09,.34l3.85,6.96c.06,.12,.09,.23,.09,.34,0,.16-.07,.31-.21,.43-.12,.12-.26,.18-.43,.18h0Zm-5.74-14.32c0-.83-.25-1.47-.76-1.89-.49-.45-1.13-.67-1.92-.67h-5.25c.51,0,.92,.17,1.22,.52,.31,.35,.46,.71,.46,1.1v2.47c0,.24,.08,.46,.24,.64,.18,.18,.41,.27,.67,.27h2.66c.79,0,1.43-.19,1.92-.58,.51-.41,.76-1.03,.76-1.86Z"/>
    <path id="path210837" class="cls-1" d="M133.74,45.16V27.29c0-.77,.26-1.4,.79-1.89,.53-.51,1.15-.76,1.86-.76h12.45c.22,0,.41,.08,.55,.24,.16,.14,.24,.33,.24,.55v3.02c0,.22-.07,.4-.21,.52-.14,.14-.34,.21-.58,.21h-11.26c.49,0,.89,.17,1.19,.52,.33,.35,.49,.72,.49,1.13v1.28c0,.22,.07,.44,.21,.64,.16,.2,.4,.31,.7,.31h6.65c.22,0,.41,.08,.55,.24,.16,.14,.24,.33,.24,.55v2.75c0,.22-.08,.42-.24,.58-.14,.14-.33,.21-.55,.21h-9.25c.47,0,.86,.16,1.19,.49s.49,.69,.49,1.1v1.44c0,.22,.08,.44,.24,.64,.16,.2,.39,.31,.67,.31h8.91c.53,0,.79,.26,.79,.79v2.99c0,.24-.08,.44-.24,.58-.14,.12-.33,.18-.55,.18h-14.59c-.2,0-.39-.07-.55-.21-.14-.16-.21-.35-.21-.55h0Z"/>
    <path id="path210839" class="cls-1" d="M161.83,45.13V27.26c0-.71,.25-1.33,.76-1.86,.51-.53,1.14-.79,1.89-.79h1.01c.22,0,.49,.05,.79,.15,.31,.08,.62,.35,.95,.79,1.2,1.87,2.28,3.56,3.24,5.07,.59,.92,1.05,1.65,1.37,2.2,.35,.53,.67,1.03,.98,1.5,.31,.45,.56,.83,.76,1.16,.2,.33,.33,.52,.37,.58,0,.04,.04,.06,.12,.06,.1,0,.15-.05,.15-.15v-8.7c0-.79,.27-1.44,.82-1.92,.55-.49,1.17-.73,1.86-.73h1.95c.22,0,.41,.07,.55,.21,.14,.18,.21,.38,.21,.58v19.7c0,.18-.07,.37-.21,.55-.16,.16-.35,.24-.55,.24h-3.45c-.45,0-.79-.19-1.04-.58-1.22-1.87-2.32-3.55-3.3-5.04-.59-.9-1.06-1.61-1.4-2.14-.35-.55-.67-1.05-.98-1.5-.31-.47-.56-.86-.76-1.16-.2-.33-.33-.52-.37-.58-.06-.06-.11-.09-.15-.09-.1,0-.15,.05-.15,.15v10.17c0,.22-.08,.41-.24,.55-.16,.14-.35,.21-.55,.21h-3.88c-.18,0-.36-.08-.52-.24-.16-.16-.24-.34-.24-.52Z"/>
    <path id="path210841" class="cls-1" d="M192.31,45.16V27.29c0-.77,.26-1.4,.79-1.89,.53-.51,1.15-.76,1.86-.76h12.45c.22,0,.41,.08,.55,.24,.16,.14,.24,.33,.24,.55v3.02c0,.22-.07,.4-.21,.52-.14,.14-.34,.21-.58,.21h-11.26c.49,0,.89,.17,1.19,.52,.33,.35,.49,.72,.49,1.13v1.28c0,.22,.07,.44,.21,.64,.16,.2,.4,.31,.7,.31h6.65c.22,0,.41,.08,.55,.24,.16,.14,.24,.33,.24,.55v2.75c0,.22-.08,.42-.24,.58-.14,.14-.33,.21-.55,.21h-9.25c.47,0,.86,.16,1.19,.49s.49,.69,.49,1.1v1.44c0,.22,.08,.44,.24,.64,.16,.2,.39,.31,.67,.31h8.91c.53,0,.79,.26,.79,.79v2.99c0,.24-.08,.44-.24,.58-.14,.12-.33,.18-.55,.18h-14.59c-.2,0-.39-.07-.55-.21-.14-.16-.21-.35-.21-.55h0Z"/>
    <path id="path210843" class="cls-1" d="M220.26,37.89v-10.57c0-.43,.08-.8,.24-1.13,.18-.33,.4-.6,.64-.82,.26-.22,.55-.39,.85-.49,.33-.12,.63-.18,.92-.18h2.29c.22,0,.41,.07,.55,.21,.16,.14,.24,.33,.24,.55v12.37c0,1.16,.26,2.08,.79,2.75,.55,.67,1.43,1.01,2.66,1.01s2.1-.34,2.63-1.01c.55-.67,.82-1.59,.82-2.75v-10.54c0-.43,.08-.8,.24-1.13,.18-.33,.41-.6,.67-.82,.26-.22,.55-.39,.85-.49,.31-.1,.6-.15,.89-.15h2.29c.22,0,.41,.07,.55,.21,.16,.14,.24,.33,.24,.55v12.43c0,1.45-.22,2.7-.67,3.76-.43,1.04-1.04,1.9-1.83,2.6-.79,.67-1.76,1.18-2.9,1.53-1.12,.33-2.37,.49-3.75,.49s-2.62-.16-3.75-.49c-1.14-.33-2.12-.82-2.93-1.5-.79-.69-1.41-1.57-1.86-2.63-.45-1.06-.67-2.31-.67-3.76h0Z"/>
    <path id="path210845" class="cls-1" d="M268.65,45.92h-4.3c-.57,0-.98-.26-1.22-.79l-3.11-6.11c-.18-.33-.46-.49-.82-.49h-4c.51,0,.91,.18,1.19,.55,.31,.35,.46,.7,.46,1.07v5.04c0,.22-.07,.4-.21,.52-.14,.14-.33,.21-.55,.21h-4.18c-.2,0-.39-.07-.55-.21-.14-.16-.21-.34-.21-.52V27.29c0-.75,.26-1.37,.79-1.86,.53-.51,1.15-.76,1.86-.76h6.47c1.14,0,2.22,.12,3.24,.37,1.04,.24,1.94,.64,2.72,1.19,.79,.55,1.42,1.27,1.89,2.17,.47,.88,.7,1.95,.7,3.24s-.27,2.32-.82,3.3c-.55,.98-1.36,1.77-2.44,2.38-.16,.1-.25,.22-.27,.37,0,.14,.03,.25,.09,.34l3.85,6.96c.06,.12,.09,.23,.09,.34,0,.16-.07,.31-.21,.43-.12,.12-.26,.18-.43,.18Zm-5.74-14.32c0-.83-.25-1.47-.76-1.89-.49-.45-1.13-.67-1.92-.67h-5.25c.51,0,.92,.17,1.22,.52,.31,.35,.46,.71,.46,1.1v2.47c0,.24,.08,.46,.24,.64,.18,.18,.41,.27,.67,.27h2.66c.79,0,1.43-.19,1.92-.58,.51-.41,.76-1.03,.76-1.86Z"/>
  </g>
</svg>
